<svg xmlns="http://www.w3.org/2000/svg" viewBox="0 0 800 450">
  <defs>
    <linearGradient id="bg5" x1="0%" y1="0%" x2="100%" y2="100%">
      <stop offset="0%" style="stop-color:#1a1a2e"/>
      <stop offset="100%" style="stop-color:#16213e"/>
    </linearGradient>
    <pattern id="dots5" width="25" height="25" patternUnits="userSpaceOnUse">
      <circle cx="12.5" cy="12.5" r="1.5" fill="#8b7394" opacity="0.1"/>
    </pattern>
  </defs>
  <rect width="800" height="450" fill="url(#bg5)"/>
  <rect width="800" height="450" fill="url(#dots5)"/>
  <circle cx="150" cy="100" r="120" fill="#8b7394" opacity="0.04"/>
  
  <!-- Checklist/tasks icon -->
  <g transform="translate(330, 110)">
    <rect x="20" y="0" width="100" height="120" rx="6" fill="none" stroke="#8b7394" stroke-width="2" opacity="0.4"/>
    <rect x="35" y="20" width="12" height="12" rx="2" fill="#8b7394" opacity="0.4"/>
    <line x1="55" y1="26" x2="105" y2="26" stroke="#8b7394" stroke-width="2" opacity="0.2"/>
    <rect x="35" y="45" width="12" height="12" rx="2" fill="#8b7394" opacity="0.3"/>
    <line x1="55" y1="51" x2="95" y2="51" stroke="#8b7394" stroke-width="2" opacity="0.2"/>
    <rect x="35" y="70" width="12" height="12" rx="2" fill="none" stroke="#8b7394" stroke-width="1.5" opacity="0.3"/>
    <line x1="55" y1="76" x2="100" y2="76" stroke="#8b7394" stroke-width="2" opacity="0.15"/>
    <rect x="35" y="95" width="12" height="12" rx="2" fill="none" stroke="#8b7394" stroke-width="1.5" opacity="0.2"/>
    <line x1="55" y1="101" x2="90" y2="101" stroke="#8b7394" stroke-width="2" opacity="0.1"/>
  </g>
  
  <!-- Project name -->
  <text x="400" y="320" font-family="system-ui, sans-serif" font-size="28" fill="#e8e6e3" text-anchor="middle" font-weight="600">Task Backend</text>
  <text x="400" y="355" font-family="monospace" font-size="16" fill="#8b7394" text-anchor="middle">Node.js · Express · MongoDB</text>
</svg>
